<svg t="1637202373096" class="icon" viewBox="0 0 1024 1024" version="1.1" xmlns="http://www.w3.org/2000/svg" p-id="4391" width="16" height="16"><path d="M960 211.2 64 211.2c-32 0-64 32-64 64l0 473.6c0 38.4 32 64 64 64l896 0c32 0 64-25.6 64-64L1024 275.2C1024 243.2 992 211.2 960 211.2zM64 236.8l896 0c19.2 0 38.4 19.2 38.4 38.4l0 76.8L25.6 352 25.6 275.2C25.6 256 44.8 236.8 64 236.8zM960 787.2 64 787.2c-19.2 0-38.4-19.2-38.4-38.4l0-57.6L448 691.2l0-12.8L25.6 678.4l0-25.6L448 652.8 448 640 25.6 640 25.6 614.4 448 614.4 448 601.6 25.6 601.6 25.6 454.4l972.8 0 0 294.4C998.4 768 979.2 787.2 960 787.2z" p-id="4392" fill="#d4237a"></path><path d="M876.8 646.4m-51.2 0a0.8 0.8 0 1 0 102.4 0 0.8 0.8 0 1 0-102.4 0Z" p-id="4393" fill="#d4237a"></path><path d="M723.2 646.4m-51.2 0a0.8 0.8 0 1 0 102.4 0 0.8 0.8 0 1 0-102.4 0Z" p-id="4394" fill="#d4237a"></path><path d="M569.6 646.4m-51.2 0a0.8 0.8 0 1 0 102.4 0 0.8 0.8 0 1 0-102.4 0Z" p-id="4395" fill="#d4237a"></path></svg>